<svg xmlns="http://www.w3.org/2000/svg" viewBox="0 0 456.01 99.11"><path fill="#e6ebee" d="M188.58 37.78h-26.17V54.1h23.66v9.85h-23.66v19.71h-11.47V27.93h37.64zm58.4 35.86h26.81v10.01h-38.28V27.93h11.47zm94.82 10.98c-16.72 0-27.7-10.42-27.7-28.83s11.23-28.83 27.78-28.83 27.7 10.42 27.7 28.83-11.23 28.83-27.78 28.83m.08-47.65c-9.85 0-16.15 6.78-16.15 18.74s6.3 18.66 16.15 18.66 16.07-6.7 16.07-18.66-6.3-18.74-16.07-18.74m113.48.65h-26.09v12.84h23.5v9.37h-23.5v13.89H456v9.93h-38.2V27.93h37.56zM97.06 99.11l4.28-42.95c-.17-.34-.65-1.15-.99-1.66-1.37-2.13-3.39-4.86-4.48-6.56-.05-.08-.1-.16-.15-.23-3.36-5.35-6.74-10.79-10.35-16a8.8 8.8 0 0 0-2.33-2.31c-1.26-.84-2.77-1.13-4.47-.94-.26.03-.53.07-.8.12-.47.09-.98.19-1.52.31-2 .44-4.57.99-6.81 1.47-2.07.44-3.95.84-4.77 1.04-.01 0-.02.02-.04.02-.14.03-.3.08-.3.08-.13.02-.41.08-.54.11-.74.15-1.49.32-2.23.49-1.7.38-3.42.76-5.15.88-3.32.23-5.65 1.72-7.37 4.28-.3.45-.58.93-.85 1.44-.17.32-.33.65-.49.98-.18.38-.36.77-.53 1.16-.49 1.07-.94 2.17-1.5 3.19a68 68 0 0 1-4.22 6.71c-1.57 2.19-3.28 4.39-4.9 6.46-1.31 1.67-2.57 3.29-3.67 4.77-3.42 4.61-10.16 12.87-13.04 17.15-.32.47-.58.89-.75 1.23-.62 1.22.15 3.59 1.17 5.61.45.89.91 1.71 1.3 2.31 1.2 1.86 4.24 5.17 5.91 8.29.09.15 1.61.36 1.7.51l.45.14 67.47 1.91Z"/><path fill="#e6ebee" d="M60.08 3.18H39.72c.05.12.1.35.15.47 1.17 3.47 2.18 6.22 3.16 8.93.08.22.16.43.23.65.64 1.78 1.31 3.54 1.89 5.3.77 2.32 1.4 4.67 1.61 7.1.36 4.03 1.59 5.14 5.17 4.58.56-.09 1.15-.18 1.76-.3 7.37-1.41 14.72-3.02 21.99-4.81.38-.09.75-.18 1.12-.25 1.36-.27 2.63-.37 3.83-.25 2.17.2 4.11 1.06 5.86 2.76.45.43.89.87 1.32 1.33.63.67 1.25 1.33 1.85 2.01.35.4.74.85 1.15 1.37.58.71 1.22 1.52 1.9 2.39 1.06 1.35 2.23 2.84 3.5 4.36 1.24 1.46 2.5 3.03 3.78 4.67V20.68c-.05-.01-.17-.04-.22-.06-.45-.11-.9-.22-1.35-.31-12.69-2.75-25.49-8.49-36.1-15.66-.75-.51-1.51-1-2.25-1.47Zm6.99-2.05c1.36 1.39 2.97 2.79 4.76 4.16.1.07.2.15.29.22 1.76 1.32 3.67 2.6 5.67 3.8 3.98 2.37 8.33 4.4 12.52 5.72.03 0 .06.02.09.02q.33.09.69.15c1.84.32 8.34-2.48 8.96-2.79l.33-3.41.11-2.62.11-2.62-16.77-1.32-16.77-1.32ZM4.35-.1 0 78.11s.11.02.14.03a10 10 0 0 0 2.74.04c2.19-.27 4.64-.68 6.58-1.02 1.46-.26 2.67-.55 3.26-.93 3.18-2.03 5.21-6.57 7.04-9.46 6.45-10.2 11.56-15.19 19.65-25.97 4.37-5.85 4.7-14.78 1.96-21.34-2.54-6.05-5.39-12.09-9.44-18.67l-.11-.06zM2.41 97.64l19.54-2.51c-1.43-2.37-4.46-6.21-6.12-8.32-.7-.89-1.72-1.85-2.7-2.3-.89-.42-1.84-.68-2.74-.7-3.08-.08-6.24.18-9.4.63-.04 0-.1.01-.14.02L2.4 97.64Z"/></svg>