<svg xmlns="http://www.w3.org/2000/svg" viewBox="0 0 204.09 204.09"><path fill="#23323b" d="M0 0h204.09v204.09H0z"/><path fill="#e6ebee" d="m171.5 176.32 6.41-64.31c-.25-.51-.98-1.73-1.49-2.49-2.06-3.18-5.07-7.28-6.71-9.82-.08-.12-.15-.24-.22-.35-5.04-8.01-10.09-16.16-15.5-23.95-1.02-1.46-2.2-2.59-3.49-3.46-1.89-1.26-4.14-1.69-6.7-1.41q-.585.06-1.2.18c-.7.13-1.47.29-2.27.47-2.99.66-6.84 1.48-10.19 2.2-3.1.66-5.91 1.26-7.14 1.56-.02 0-.04.03-.06.04-.21.05-.45.11-.45.13l-.81.16c-1.11.23-2.23.48-3.34.73-2.55.57-5.12 1.13-7.72 1.31-4.97.35-8.46 2.57-11.03 6.41-.45.68-.87 1.39-1.27 2.15-.25.48-.5.97-.74 1.47-.27.57-.53 1.15-.8 1.73-.73 1.61-1.4 3.24-2.25 4.78-1.72 3.12-3.87 6.61-6.32 10.04-2.35 3.28-4.91 6.57-7.34 9.67-1.96 2.5-3.85 4.93-5.5 7.14-5.12 6.9-15.21 19.27-19.53 25.68-.48.71-.86 1.33-1.12 1.84-.92 1.83.22 5.37 1.75 8.4.67 1.33 1.36 2.56 1.94 3.46 1.8 2.79 6.35 7.74 8.84 12.42.13.23 2.41.54 2.55.77l.67.21 101.02 2.86Z"/><path fill="#e6ebee" d="M116.14 32.69H85.66c.07.18.16.53.23.7 1.75 5.19 3.27 9.31 4.72 13.37.12.32.23.65.35.97.96 2.67 1.96 5.31 2.82 7.93 1.16 3.48 2.09 6.99 2.42 10.63.53 6.03 2.38 7.7 7.74 6.86.84-.13 1.72-.27 2.63-.45a649 649 0 0 0 32.92-7.2c.57-.14 1.13-.26 1.68-.38 2.03-.41 3.94-.55 5.74-.38 3.24.29 6.15 1.58 8.78 4.14.67.64 1.33 1.31 1.98 1.99.95 1 1.87 2 2.77 3.01.52.59 1.1 1.28 1.73 2.05.87 1.07 1.83 2.28 2.85 3.59 1.58 2.02 3.34 4.26 5.25 6.53 1.85 2.19 3.74 4.54 5.66 6.99V58.89l-.33-.08c-.67-.17-1.34-.32-2.02-.47-19-4.11-38.17-12.72-54.05-23.44-1.13-.76-2.26-1.49-3.38-2.2Zm10.46-3.07c2.04 2.08 4.45 4.18 7.13 6.23.15.11.29.22.44.33 2.63 1.98 5.5 3.9 8.5 5.69 5.97 3.55 12.47 6.59 18.75 8.57.04.01.09.02.13.04.33.09.67.16 1.03.23 2.76.48 12.49-3.71 13.42-4.18l.5-5.11.17-3.92.17-3.92-25.11-1.97-25.11-1.97Zm-93.91-1.85-6.51 117.11.21.04c.23.04.52.08.83.11.89.09 2.02.11 3.26-.05 3.27-.41 6.95-1.01 9.86-1.52 2.19-.38 4-.82 4.88-1.39 4.76-3.04 7.8-9.84 10.55-14.16 9.66-15.27 17.31-22.74 29.43-38.89 6.54-8.76 7.04-22.13 2.93-31.94-3.8-9.06-8.07-18.1-14.13-27.96l-.16-.08zM29.8 174.12l29.25-3.76c-2.13-3.55-6.68-9.3-9.16-12.46-1.05-1.33-2.58-2.76-4.04-3.45-1.33-.62-2.75-1.02-4.1-1.06-4.62-.12-9.34.27-14.08.94-.06 0-.15.02-.21.03l2.32 19.74Z"/></svg>