<?xml version="1.0" encoding="UTF-8" standalone="no"?>
<!-- Created with Inkscape (http://www.inkscape.org/) -->

<svg
   width="100"
   height="90"
   viewBox="0 0 26.458333 23.8125"
   version="1.1"
   id="svg1"
   inkscape:version="1.3.2 (091e20ef0f, 2023-11-25)"
   sodipodi:docname="icon-with-text.svg"
   inkscape:export-filename="icon-with-text-100.png"
   inkscape:export-xdpi="512"
   inkscape:export-ydpi="512"
   xmlns:inkscape="http://www.inkscape.org/namespaces/inkscape"
   xmlns:sodipodi="http://sodipodi.sourceforge.net/DTD/sodipodi-0.dtd"
   xmlns="http://www.w3.org/2000/svg"
   xmlns:svg="http://www.w3.org/2000/svg">
  <sodipodi:namedview
     id="namedview1"
     pagecolor="#505050"
     bordercolor="#eeeeee"
     borderopacity="1"
     inkscape:showpageshadow="0"
     inkscape:pageopacity="0"
     inkscape:pagecheckerboard="0"
     inkscape:deskcolor="#505050"
     inkscape:document-units="mm"
     inkscape:zoom="4.5878967"
     inkscape:cx="7.846733"
     inkscape:cy="74.652946"
     inkscape:window-width="2556"
     inkscape:window-height="1394"
     inkscape:window-x="0"
     inkscape:window-y="0"
     inkscape:window-maximized="1"
     inkscape:current-layer="layer1" />
  <defs
     id="defs1">
    <rect
       x="5.5307617"
       y="66.854004"
       width="88.127442"
       height="18.478027"
       id="rect1" />
  </defs>
  <g
     inkscape:label="Layer 1"
     inkscape:groupmode="layer"
     id="layer1">
    <g
       id="g7"
       transform="matrix(2.0832948,0,0,2.0832948,-0.28155276,-4.1430078)">
      <path
         style="fill:#73a5a6;fill-opacity:1;stroke-width:0.264583"
         d="m 2.1590871,6.2529132 1.5700591,2.956215 1.6426,-0.2350633 2.7535265,0.028227 L 9.9843847,8.5579415 10.744351,5.7403476 7.6596557,4.5294396 4.1057646,5.7686723 Z"
         id="path7"
         sodipodi:nodetypes="ccccccccc" />
      <path
         style="fill:#8fd6d8;fill-opacity:1;stroke-width:0.264583"
         d="M 9.374861,5.4260257 9.9852067,8.5503032 11.708311,5.9715352 Z"
         id="path4"
         sodipodi:nodetypes="cccc" />
      <path
         style="fill:#c0f9f9;fill-opacity:1;stroke-width:0.264583"
         d="M 6.9177503,8.9860399 8.1240976,9.0073318 8.6296869,5.6669672 7.263039,4.9287693 Z"
         id="path6"
         sodipodi:nodetypes="ccccc" />
      <path
         style="fill:#8fd6d8;fill-opacity:1;stroke-width:0.270599"
         d="M 3.6584141,5.7808492 3.7305713,9.2053615 2.2285908,8.3463065 Z"
         id="path5"
         sodipodi:nodetypes="cccc" />
      <path
         style="fill:#c0f9f9;fill-opacity:1;stroke-width:0.264583"
         d="M 1.2587544,4.9640384 2.2339533,8.3500075 3.6960086,5.9819996 Z"
         id="path2"
         sodipodi:nodetypes="cccc" />
      <path
         style="fill:#8fd6d8;fill-opacity:1;stroke-width:0.264583"
         d="M 5.8524017,5.1266253 5.0861613,9.0155354 6.9155471,8.9878149 7.4320855,4.9599689 Z"
         id="path3"
         sodipodi:nodetypes="ccccc" />
      <path
         style="fill:#e8fdfe;fill-opacity:1;stroke-width:0.264583"
         d="M 1.2600826,4.9723099 3.605575,6.0945251 5.8420664,5.2567209 7.375177,5.1939986 8.5622492,5.9526733 9.3589058,5.4602615 c 0,0 2.2835662,0.5137604 2.3511972,0.5137604 0.06763,0 -1.9374626,-1.8249854 -1.9374626,-1.8249854 L 8.0288838,3.6451267 c 0,0 -2.2066482,0.032879 -2.2870051,0.032879 -0.080357,0 -2.2164667,0.2256967 -2.2164667,0.2256967 z"
         id="path1"
         sodipodi:nodetypes="ccccccsccscc" />
    </g>
    <text
       xml:space="preserve"
       transform="matrix(0.26458333,0,0,0.26458333,7.4191167,-0.09854109)"
       id="text1"
       style="white-space:pre;shape-inside:url(#rect1);display:inline;fill:#f9f9f9;fill-opacity:1"><tspan
         x="5.53125"
         y="77.953516"
         id="tspan3"><tspan
           style="font-weight:600;font-family:FreeSans;-inkscape-font-specification:'FreeSans Semi-Bold'"
           id="tspan2">FLOE</tspan></tspan></text>
  </g>
</svg>
