<?xml version="1.0" encoding="UTF-8"?><svg id="a" xmlns="http://www.w3.org/2000/svg" viewBox="0 0 305.06 57.66"><path d="M37.64,10.82H11.47v16.32h23.66v9.85H11.47v19.71H0V.97h37.64v9.85Z" fill="#e6ebee"/><path d="M96.03,46.68h26.81v10.01h-38.28V.97h11.47v45.71Z" fill="#e6ebee"/><path d="M190.86,57.67c-16.72,0-27.7-10.42-27.7-28.83S174.38,0,190.94,0s27.7,10.42,27.7,28.83-11.23,28.83-27.78,28.83ZM190.94,10.01c-9.85,0-16.15,6.78-16.15,18.74s6.3,18.66,16.15,18.66,16.07-6.7,16.07-18.66-6.3-18.74-16.07-18.74Z" fill="#e6ebee"/><path d="M304.41,10.66h-26.09v12.84h23.5v9.37h-23.5v13.89h26.73v9.93h-38.2V.97h37.56v9.69Z" fill="#e6ebee"/></svg>