<?xml version="1.0" encoding="UTF-8"?><svg id="a" xmlns="http://www.w3.org/2000/svg" viewBox="0 0 360 113.39"><rect width="360" height="113.39" fill="#23323b"/><path d="M65.11,38.68h-26.17v16.32h23.66v9.85h-23.66v19.71h-11.47V28.83h37.64v9.85Z" fill="#e6ebee"/><path d="M123.5,74.54h26.81v10.01h-38.28V28.83h11.47v45.71Z" fill="#e6ebee"/><path d="M218.33,85.53c-16.72,0-27.7-10.42-27.7-28.83s11.23-28.83,27.78-28.83,27.7,10.42,27.7,28.83-11.23,28.83-27.78,28.83ZM218.4,37.87c-9.85,0-16.15,6.78-16.15,18.74s6.3,18.66,16.15,18.66,16.07-6.7,16.07-18.66-6.3-18.74-16.07-18.74Z" fill="#e6ebee"/><path d="M331.88,38.52h-26.09v12.84h23.5v9.37h-23.5v13.89h26.73v9.93h-38.2V28.83h37.56v9.69Z" fill="#e6ebee"/></svg>