<svg xmlns="http://www.w3.org/2000/svg" viewBox="0 0 360 113.39"><path fill="#23323b" d="M0 0h360v113.39H0z"/><path fill="#e6ebee" d="M65.11 38.68H38.94V55H62.6v9.85H38.94v19.71H27.47V28.83h37.64zm58.39 35.86h26.81v10.01h-38.28V28.83h11.47zm94.83 10.99c-16.72 0-27.7-10.42-27.7-28.83s11.23-28.83 27.78-28.83 27.7 10.42 27.7 28.83-11.23 28.83-27.78 28.83m.07-47.66c-9.85 0-16.15 6.78-16.15 18.74s6.3 18.66 16.15 18.66 16.07-6.7 16.07-18.66-6.3-18.74-16.07-18.74m113.48.65h-26.09v12.84h23.5v9.37h-23.5v13.89h26.73v9.93h-38.2V28.83h37.56z"/></svg>