<svg xmlns="http://www.w3.org/2000/svg" width="128" height="128"><path fill="#E6EBEE" d="M122.594 128.043 128 72.609c-.21-.437-.828-1.488-1.258-2.144-1.738-2.742-4.277-6.274-5.66-8.465-.066-.102-.125-.207-.184-.3-4.253-6.907-8.511-13.93-13.078-20.645a11.3 11.3 0 0 0-2.945-2.98c-1.594-1.087-3.492-1.458-5.648-1.22q-.496.052-1.016.157c-.59.113-1.238.25-1.914.406-2.524.566-5.77 1.273-8.598 1.895-2.613.57-4.984 1.085-6.023 1.347-.016 0-.031.024-.047.031-.18.043-.383.098-.383.114l-.683.136c-.934.2-1.88.414-2.817.63-2.152.492-4.32.976-6.512 1.128-4.191.305-7.136 2.219-9.304 5.528-.38.586-.735 1.199-1.07 1.851q-.319.62-.626 1.27c-.23.488-.449.988-.675 1.488-.618 1.39-1.18 2.793-1.899 4.121a89 89 0 0 1-5.332 8.656c-1.98 2.825-4.14 5.66-6.191 8.332a357 357 0 0 0-4.64 6.157c-4.321 5.945-12.833 16.609-16.477 22.132a17 17 0 0 0-.942 1.586c-.777 1.578.184 4.63 1.477 7.243a34 34 0 0 0 1.633 2.984c1.519 2.402 5.359 6.668 7.46 10.703.11.2 2.032.465 2.149.664l.566.18 85.223 2.465Zm0 0"/><path fill="#E6EBEE" d="M75.883 4.23H50.168c.059.157.137.457.195.606 1.477 4.473 2.758 8.023 3.98 11.523.102.278.196.563.298.836.808 2.301 1.652 4.578 2.379 6.836.976 3 1.761 6.024 2.042 9.164.446 5.196 2.008 6.637 6.528 5.91.707-.109 1.453-.23 2.219-.386a536 536 0 0 0 27.773-6.207c.48-.121.953-.223 1.414-.328 1.715-.352 3.324-.473 4.844-.325 2.734.25 5.187 1.36 7.406 3.567.567.55 1.121 1.129 1.672 1.715q1.2 1.293 2.336 2.593c.437.512.93 1.106 1.46 1.77.731.922 1.544 1.965 2.403 3.094 1.332 1.742 2.817 3.672 4.43 5.629a213 213 0 0 1 4.773 6.023V26.816l-.277-.07a60 60 0 0 0-1.703-.406c-16.031-3.543-32.203-10.961-45.598-20.203a113 113 0 0 0-2.851-1.895Zm8.832-2.636c1.722 1.793 3.754 3.605 6.015 5.37l.372.286a81 81 0 0 0 7.168 4.902c5.039 3.063 10.523 5.68 15.82 7.387.031.012.074.02.11.035.277.078.566.137.866.2 2.329.413 10.54-3.2 11.325-3.602l.418-4.406.289-6.758-21.184-1.7L84.73 1.614ZM5.492 0 0 100.941l.176.036c.195.035.441.07.703.097.75.074 1.703.094 2.75-.043 2.758-.355 5.863-.87 8.316-1.312 1.848-.328 3.375-.707 4.118-1.2 4.015-2.617 6.578-8.48 8.898-12.203 8.152-13.164 14.605-19.601 24.828-33.523 5.52-7.55 5.938-19.074 2.473-27.527-3.207-7.813-6.809-15.602-11.922-24.102l-.133-.07ZM3.047 126.148l24.676-3.242c-1.797-3.058-5.637-8.015-7.73-10.742-.884-1.144-2.177-2.379-3.407-2.973-1.121-.535-2.32-.879-3.461-.914-3.895-.101-7.879.235-11.875.813-.05 0-.129.015-.18.023l1.957 17.016Zm0 0"/></svg>