<svg xmlns="http://www.w3.org/2000/svg" width="256" height="256"><path fill="#E6EBEE" d="M245.184 256.086 256 145.223c-.422-.88-1.652-2.985-2.516-4.293-3.472-5.48-8.55-12.551-11.32-16.93-.133-.207-.254-.414-.371-.602-8.504-13.808-17.023-27.859-26.152-41.289-1.72-2.515-3.711-4.464-5.887-5.964-3.188-2.172-6.984-2.915-11.305-2.43-.656.066-1.332.172-2.023.308-1.184.227-2.48.5-3.832.813-5.043 1.137-11.54 2.55-17.192 3.793-5.23 1.137-9.972 2.172-12.047 2.687-.035 0-.066.051-.101.07-.356.087-.758.188-.758.223l-1.367.278c-1.875.394-3.762.828-5.637 1.258-4.3.98-8.637 1.949-13.023 2.257-8.387.602-14.274 4.43-18.61 11.051a42 42 0 0 0-2.144 3.707 95 95 0 0 0-1.25 2.531c-.453.985-.89 1.985-1.348 2.985-1.23 2.773-2.363 5.586-3.797 8.238a178 178 0 0 1-10.664 17.309c-3.965 5.656-8.281 11.328-12.383 16.672-3.308 4.308-6.496 8.5-9.28 12.308-8.638 11.895-25.661 33.219-32.95 44.27-.809 1.222-1.453 2.293-1.89 3.172-1.551 3.156.37 9.257 2.952 14.48 1.13 2.293 2.293 4.414 3.274 5.965 3.035 4.808 10.715 13.344 14.914 21.41.219.398 4.066.934 4.305 1.328l1.129.363 170.441 4.93Zm0 0"/><path fill="#E6EBEE" d="M151.766 8.465H100.34c.117.308.27.914.387 1.207 2.953 8.945 5.515 16.047 7.964 23.047.2.55.387 1.12.59 1.672 1.617 4.605 3.305 9.156 4.758 13.672 1.957 6 3.527 12.05 4.082 18.324.895 10.394 4.016 13.273 13.059 11.828 1.418-.227 2.902-.465 4.437-.778a1077 1077 0 0 0 55.543-12.41c.961-.242 1.906-.449 2.836-.656 3.426-.707 6.649-.95 9.684-.656 5.465.5 10.375 2.722 14.812 7.137a107 107 0 0 1 3.344 3.43 228 228 0 0 1 4.672 5.19 122 122 0 0 1 2.918 3.536c1.469 1.844 3.09 3.93 4.808 6.187 2.668 3.48 5.637 7.344 8.86 11.258 3.12 3.774 6.308 7.824 9.547 12.05V53.63l-.555-.137c-1.129-.293-2.262-.55-3.41-.808-32.055-7.086-64.399-21.93-91.192-40.41a262 262 0 0 0-5.703-3.794Zm17.664-5.277c3.441 3.585 7.507 7.207 12.03 10.742.25.187.49.379.743.57a162 162 0 0 0 14.34 9.809c10.074 6.117 21.039 11.359 31.637 14.773.066.016.148.035.218.066.555.157 1.13.278 1.739.399 4.656.828 21.07-6.395 22.64-7.207l.844-8.809.285-6.758.29-6.757-42.368-3.395-42.363-3.398ZM10.984 0 0 201.887l.355.07c.387.066.875.137 1.399.188 1.504.156 3.41.19 5.5-.086 5.52-.707 11.726-1.743 16.637-2.621 3.695-.653 6.75-1.415 8.234-2.395 8.031-5.242 13.16-16.965 17.8-24.41 16.298-26.324 29.204-39.203 49.653-67.043 11.035-15.102 11.879-38.152 4.945-55.063C98.11 34.91 90.906 19.324 80.683 2.328l-.269-.14ZM6.09 252.293l49.351-6.48c-3.593-6.122-11.27-16.032-15.453-21.481-1.773-2.293-4.355-4.758-6.816-5.95-2.246-1.066-4.64-1.757-6.918-1.823-7.797-.207-15.758.464-23.758 1.617-.101 0-.254.035-.351.054l3.914 34.028Zm0 0"/></svg>