<svg xmlns="http://www.w3.org/2000/svg" width="32" height="32"><path fill="#73A5A6" d="m2.758 15.465 4.805 9.05 5.027-.718 8.43.086 5.69-1.36 2.33-8.625-9.446-3.707-10.88 3.793Zm0 0"/><path fill="#8FD6D8" d="m24.848 12.934 1.867 9.566 5.273-7.895Zm0 0"/><path fill="#C0F9F9" d="m17.324 23.832 3.692.066 1.55-10.226-4.183-2.258Zm0 0"/><path fill="#8FD6D8" d="m7.348 14.023.218 10.48-4.597-2.628Zm0 0"/><path fill="#C0F9F9" d="m0 11.52 2.984 10.367 4.477-7.25Zm0 0"/><path fill="#8FD6D8" d="m14.063 12.02-2.344 11.906 5.597-.086 1.582-12.332Zm0 0"/><path fill="#E8FDFE" d="m.004 11.547 7.18 3.433 6.847-2.562 4.692-.191 3.636 2.32 2.438-1.508s6.992 1.574 7.2 1.574c.206 0-5.934-5.586-5.934-5.586l-5.336-1.543s-6.758.102-7.004.102-6.786.687-6.786.687Zm0 0"/></svg>