<svg xmlns="http://www.w3.org/2000/svg" width="256" height="256"><path fill="#73A5A6" d="m22.05 123.734 38.45 72.399 40.23-5.758 67.434.691 45.531-10.882 18.614-69.004-75.547-29.657-87.035 30.352Zm0 0"/><path fill="#8FD6D8" d="m198.77 103.484 14.945 76.512 42.2-63.152Zm0 0"/><path fill="#C0F9F9" d="m138.594 190.668 29.543.523 12.383-81.808-33.473-18.078Zm0 0"/><path fill="#8FD6D8" d="m58.77 112.172 1.765 83.867L23.75 175Zm0 0"/><path fill="#C0F9F9" d="m0 92.168 23.883 82.926 35.808-57.996Zm0 0"/><path fill="#8FD6D8" d="m112.5 96.148-18.766 95.243 44.805-.68 12.649-98.64Zm0 0"/><path fill="#E8FDFE" d="m.031 92.371 57.446 27.484 54.77-20.52 37.546-1.534 29.074 18.578 19.512-12.059s55.922 12.582 57.582 12.582c1.656 0-47.453-44.695-47.453-44.695l-42.703-12.34s-54.043.805-56.012.805-54.281 5.527-54.281 5.527Zm0 0"/></svg>