<svg xmlns="http://www.w3.org/2000/svg" width="128" height="128"><path fill="#73A5A6" d="m11.023 61.867 19.227 36.2 20.113-2.88 33.719.348 22.766-5.441 9.304-34.504L78.38 40.762 34.863 55.938Zm0 0"/><path fill="#8FD6D8" d="M99.383 51.742 106.859 90l21.098-31.578Zm0 0"/><path fill="#C0F9F9" d="m69.297 95.336 14.77.258 6.19-40.903-16.734-9.039Zm0 0"/><path fill="#8FD6D8" d="m29.383 56.086.887 41.934L11.875 87.5Zm0 0"/><path fill="#C0F9F9" d="m0 46.086 11.941 41.46 17.903-28.995Zm0 0"/><path fill="#8FD6D8" d="m56.25 48.074-9.383 47.621 22.403-.34 6.324-49.32Zm0 0"/><path fill="#E8FDFE" d="m.016 46.184 28.722 13.742 27.387-10.258 18.773-.77 14.536 9.293 9.754-6.03s27.964 6.292 28.792 6.292-23.726-22.348-23.726-22.348l-21.352-6.171s-27.02.402-28.004.402-27.144 2.766-27.144 2.766Zm0 0"/></svg>